<?xml version="1.0" encoding="UTF-8"?>
<svg version="1.1" xmlns="http://www.w3.org/2000/svg" width="2186" height="2186">
<path d="M0 0 C5.0317454 0.00915496 10.06302507 0.00232227 15.09472656 -0.02050781 C48.69343794 -0.17195153 81.83575292 1.00987921 115.2644043 4.44604492 C116.62732082 4.5835314 117.99024529 4.72093916 119.35317993 4.85824585 C126.17136163 5.55803594 132.96957538 6.36153027 139.7644043 7.25854492 C140.72605499 7.38232513 141.68770569 7.50610535 142.67849731 7.63363647 C223.81293636 18.10045253 303.90857055 38.20672422 382.2644043 73.44604492 C383.48452678 73.99328866 384.70474193 74.54032582 385.92504883 75.0871582 C400.7852506 81.75977052 415.28299675 88.86878464 429.46899414 96.8762207 C432.43809106 98.54358255 435.42194723 100.18206229 438.40893555 101.81713867 C471.20384293 119.84409801 502.10154079 141.00760539 531.2644043 164.44604492 C532.1925293 165.19112305 533.1206543 165.93620117 534.0769043 166.70385742 C544.72258737 175.33800154 555.11291714 184.26159445 565.16381836 193.58105469 C567.10978312 195.38353482 569.06547352 197.17265692 571.03027344 198.95483398 C577.87523669 205.16540328 584.5173907 211.54161231 591.0390625 218.09033203 C592.59025157 219.64693881 594.14679822 221.19804664 595.70385742 222.7487793 C600.56004701 227.60174234 605.31646264 232.49791314 609.78173828 237.71826172 C611.99680198 240.299524 614.32107194 242.76964457 616.6394043 245.25854492 C620.93191638 249.9050862 624.99778461 254.68703732 628.96362305 259.61791992 C631.00268965 262.12434474 633.08844581 264.5822101 635.19775391 267.02954102 C641.25900098 274.0789999 646.86229704 281.41737878 652.37207031 288.90258789 C653.8707695 290.91696644 655.38278617 292.91858896 656.90478516 294.9152832 C664.2790782 304.61543837 671.22208698 314.539767 677.9519043 324.69604492 C678.46709625 325.47129517 678.98228821 326.24654541 679.51309204 327.04528809 C693.59751408 348.26281547 706.81617058 369.86041645 718.66967773 392.41674805 C720.30468123 395.52255382 721.9598537 398.61707704 723.6159668 401.71166992 C753.11891007 457.24908606 775.36587816 516.77857651 792.3894043 577.25854492 C792.58985352 577.96970459 792.79030273 578.68086426 792.99682617 579.41357422 C793.755361 582.19569104 794.2644043 584.54555738 794.2644043 587.44604492 C793.11454041 587.75321442 791.96467651 588.06038391 790.77996826 588.37686157 C779.70073223 591.33659217 768.62165174 594.29690439 757.54269695 597.25768757 C751.70117629 598.81876067 745.85958782 600.37957914 740.01785278 601.93984985 C707.55711716 610.60433652 707.55711716 610.60433652 675.11987305 619.35620117 C673.86902924 619.69528503 672.61818542 620.0343689 671.32943726 620.38372803 C665.8791978 621.86170695 660.43041432 623.34466811 654.98413086 624.8371582 C653.14921873 625.33587298 651.31426152 625.83442194 649.47924805 626.33276367 C648.68310593 626.55327896 647.88696381 626.77379425 647.06669617 627.00099182 C643.63796823 627.92742375 640.84693323 628.44604492 637.2644043 628.44604492 C637.02955322 627.61508301 636.79470215 626.78412109 636.55273438 625.92797852 C624.71922976 584.30512187 610.6552305 543.66301221 592.2644043 504.44604492 C591.83369629 503.51904785 591.40298828 502.59205078 590.95922852 501.63696289 C576.67690504 470.97448964 560.52201579 441.28980535 541.2644043 413.44604492 C540.80888184 412.78475586 540.35335938 412.1234668 539.8840332 411.44213867 C529.85499589 396.9259805 519.33908141 382.81558667 507.82299805 369.44213867 C505.35115847 366.54763339 502.95902363 363.60203209 500.5769043 360.63354492 C497.38272135 356.7048707 494.05386161 353.0751522 490.3815918 349.59057617 C488.50252905 347.68724508 486.7645152 345.73560686 485.01831055 343.71166992 C481.29285366 339.42194503 477.3548103 335.38814578 473.3269043 331.38354492 C472.33013672 330.38097656 472.33013672 330.38097656 471.31323242 329.3581543 C467.3679314 325.42050662 463.31293085 321.67034832 459.09277344 318.02929688 C456.66521015 315.92718072 454.31054862 313.74994808 451.9519043 311.57104492 C446.54716421 306.65361746 440.98247756 301.99247873 435.2644043 297.44604492 C434.64774902 296.95152832 434.03109375 296.45701172 433.39575195 295.94750977 C414.32883187 280.6912057 394.27520373 266.88670083 373.2644043 254.44604492 C372.38413574 253.92478027 371.50386719 253.40351563 370.59692383 252.86645508 C300.76441301 211.83969732 223.26162632 187.60434 -197.52789307 189.40936279 C-261.44653112 206.18053449 -323.39871789 232.59646572 -377.7355957 270.44604492 C-378.36208008 270.88110352 -378.98856445 271.31616211 -379.6340332 271.7644043 C-391.75152426 280.21341441 -403.3861433 289.17478449 -414.6027832 298.78588867 C-417.51540372 301.27588311 -420.49453231 303.67569471 -423.4855957 306.07104492 C-427.81155764 309.58706623 -431.73896453 313.34212302 -435.6262207 317.33276367 C-437.57484397 319.2849955 -439.57650199 321.09305389 -441.6730957 322.88354492 C-448.57603664 328.82392437 -454.91747742 335.34447483 -460.83325195 342.26245117 C-462.74244194 344.45390333 -464.70552499 346.58929107 -466.68286133 348.71923828 C-472.29206343 354.7667792 -477.5792379 361.00485209 -482.7355957 367.44604492 C-483.66964473 368.58866476 -484.60458664 369.73055511 -485.5402832 370.87182617 C-493.06269025 380.09224328 -500.0174095 389.62699784 -506.7355957 399.44604492 C-507.27941895 400.23720703 -507.82324219 401.02836914 -508.38354492 401.84350586 C-560.06627078 477.28686153 -593.68138306 562.99090721 -620.7355957 682.44604492 C-620.89459351 683.22665283 -621.05359131 684.00726074 -621.21740723 684.81152344 C-637.41010108 764.68651419 -643.99178337 846.83460515 -643.9230957 928.25854492 C-643.92282883 928.97320168 -643.92256195 929.68785843 -643.92228699 930.42417145 C-643.91014434 956.47204863 -643.40282373 982.44523985 -641.7355957 1008.44604492 C-641.67007507 1009.46813049 -641.60455444 1010.49021606 -641.53704834 1011.54327393 C-639.53823834 1042.28603827 -636.74766628 1072.89983084 -632.7355957 1103.44604492 C-632.57154236 1104.70399872 -632.57154236 1104.70399872 -632.4041748 1105.98736572 C-620.82462457 1194.43646247 -599.18207086 1282.79995006 -556.7355957 1373.44604492 C-556.18790527 1374.58525391 -555.64021484 1375.72446289 -555.07592773 1376.89819336 C-547.02946666 1393.54208573 -538.31186027 1409.63573373 -528.7355957 1425.44604492 C-528.1904834 1426.35435059 -527.64537109 1427.26265625 -527.08374023 1428.19848633 C-516.61154493 1445.62278485 -505.15919743 1462.35283842 -492.7355957 1478.44604492 C-492.1163623 1479.25235352 -492.1163623 1479.25235352 -491.48461914 1480.07495117 C-479.64948594 1495.45799624 -466.82602332 1509.92739552 -453.6105957 1524.13354492 C-453.03647949 1524.75156982 -452.46236328 1525.36959473 -451.87084961 1526.00634766 C-446.16917067 1532.11202475 -440.35720517 1537.98588503 -434.0246582 1543.43823242 C-431.8004243 1545.38918161 -429.62487112 1547.38670245 -427.45654297 1549.39941406 C-421.40977295 1555.00526374 -415.19896649 1560.32047906 -408.7355957 1565.44604492 C-408.12039063 1565.93911133 -407.50518555 1566.43217773 -406.87133789 1566.94018555 C-386.57522664 1583.1810022 -365.231237 1597.4368468 -342.7355957 1610.44604492 C-341.94411133 1610.90672363 -341.15262695 1611.36740234 -340.3371582 1611.84204102 C-296.59742831 1637.18501174 -249.44183392 1655.2711406 -200.7355957 1668.44604492 C-199.58494629 1668.75880371 -198.43429687 1669.0715625 -197.2487793 1669.39379883 C-113.32644985 1691.94063472 -25.0082526 1697.59260383 341.19946289 1619.76147461 C365.07594669 1605.77131653 388.45892762 1590.11097404 409.3737793 1571.93823242 C412.03858629 1569.64073666 414.75854146 1567.4450828 417.5144043 1565.25854492 C429.26440626 1555.65258068 439.99025294 1544.81351221 450.75427246 1534.13140869 C451.74354812 1533.15016975 452.73429972 1532.17041609 453.72668457 1531.19232178 C460.38818934 1524.61689103 466.43483327 1517.76352612 472.2644043 1510.44604492 C473.1278594 1509.41855106 473.9962521 1508.3951407 474.8737793 1507.37963867 C501.78317764 1476.00170885 522.67726434 1438.40553393 536.2644043 1399.44604492 C536.56830078 1398.57689453 536.87219727 1397.70774414 537.18530273 1396.81225586 C563.83685548 1319.47439897 562.22123932 1229.38575134 526.31591797 1155.18676758 C524.6878308 1151.90969457 522.98875888 1148.67330723 521.2644043 1145.44604492 C520.91796875 1144.7918457 520.5715332 1144.13764648 520.21459961 1143.46362305 C512.60333684 1129.18815307 503.67330436 1115.8403463 493.2644043 1103.44604492 C492.46518555 1102.46249023 491.6659668 1101.47893555 490.8425293 1100.46557617 C484.52653872 1092.79747194 477.70437513 1085.67686092 470.7019043 1078.63354492 C469.40893433 1077.3267981 469.40893433 1077.3267981 468.08984375 1075.99365234 C462.12429926 1070.05634043 455.86859782 1064.65935621 449.2644043 1059.44604492 C448.54808838 1058.87571533 447.83177246 1058.30538574 447.09375 1057.71777344 C439.14066787 1051.43162766 431.00514943 1045.45520488 422.5769043 1039.82104492 C421.83496826 1039.32435303 421.09303223 1038.82766113 420.32861328 1038.31591797 C416.41081868 1035.73461957 412.48724469 1033.50974623 408.2644043 1031.44604492 C408.05460937 1032.83666138 408.05460937 1032.83666138 407.84057617 1034.25537109 C394.58207315 1121.50753729 369.24530042 1205.49371239 301.2644043 1294.44604492 C300.51932617 1295.29038086 299.77424805 1296.1347168 299.0065918 1297.00463867 C296.77703554 1299.5019015 294.52333762 1301.9753366 292.2644043 1304.44604492 C291.30585147 1305.50964923 290.34753093 1306.57346292 289.3894043 1307.63745117 C283.33469166 1314.32550196 277.09886485 1320.54177599 270.2644043 1326.44604492 C269.16684367 1327.42777069 268.07057208 1328.41093881 266.9753418 1329.39526367 C213.12765818 1377.43072293 144.07333997 1403.99312123 73.3269043 1414.25854492 C72.31246246 1414.40773376 72.31246246 1414.40773376 71.27752686 1414.55993652 C49.50544339 1417.71384579 27.68525745 1418.83315345 5.7019043 1418.75854492 C4.5744278 1418.75672211 3.44695129 1418.75489929 2.28530884 1418.75302124 C-16.23668562 1418.70288367 -34.36852104 1417.9457941 -52.7355957 1415.44604492 C-53.97293457 1415.28507324 -55.21027344 1415.12410156 -56.48510742 1414.95825195 C-95.70804486 1409.72416942 -133.70985075 1398.81930369 -169.7355957 1382.44604492 C-171.17820114 1381.80648985 -172.62090629 1381.16715964 -174.0637207 1380.52807617 C-209.60489044 1364.54178621 -241.08148816 1341.18046796 -268.6105957 1313.82104492 C-269.0971463 1313.33985199 -269.5836969 1312.85865906 -270.08499146 1312.36288452 C-276.76323889 1305.74053499 -282.9198882 1298.84143406 -288.7355957 1291.44604492 C-289.26846191 1290.77782715 -289.80132813 1290.10960937 -290.3503418 1289.42114258 C-330.71232683 1238.38036437 -350.93130109 1174.20203947 -350.9855957 1109.44604492 C-350.98627045 1108.71160156 -350.98694519 1107.9771582 -350.98764038 1107.22045898 C-350.89215414 1040.94051123 -329.22070781 976.56696929 -286.7355957 925.44604492 C-285.91188477 924.43670898 -285.08817383 923.42737305 -284.23950195 922.38745117 C-273.25796109 909.11931077 -261.1158482 896.09591513 -247.44262695 885.5703125 C-244.63771332 883.36923444 -241.93740515 881.07175399 -239.2277832 878.75463867 C-233.05865547 873.56242002 -226.53568877 868.99859915 -219.7980957 864.57104492 C-219.21532867 864.1855246 -218.63256165 863.80000427 -218.03213501 863.40280151 C-207.20724327 856.25072296 -196.1794437 849.56455973 -184.7355957 843.44604492 C-183.89351562 842.99213379 -183.05143555 842.53822266 -182.18383789 842.07055664 C-120.42593678 809.08861286 -49.15784996 794.4227931 20.2644043 790.44604492 C20.92493805 790.4040094 21.5854718 790.36197388 22.26602173 790.31866455 C43.04741493 789.02017398 63.88924534 789.20033852 84.7019043 789.19604492 C85.68277512 789.19560307 86.66364594 789.19516121 87.67424011 789.19470596 C117.63338842 789.1876341 147.42733617 789.45935697 177.2644043 792.44604492 C178.19569153 792.53797119 179.12697876 792.62989746 180.08648682 792.72460938 C202.56969111 794.95848583 224.98706258 797.64833152 247.2644043 801.44604492 C242.8884793 770.30604277 234.19865893 739.6770904 220.2644043 711.44604492 C219.87140137 710.64231445 219.47839844 709.83858398 219.07348633 709.01049805 C211.26522626 693.1862612 201.88742393 678.75411517 190.2644043 665.44604492 C189.5820874 664.66318115 189.5820874 664.66318115 188.88598633 663.86450195 C182.22992937 656.28331312 175.33364013 649.55344049 167.2644043 643.44604492 C166.40459961 642.78217773 165.54479492 642.11831055 164.65893555 641.43432617 C130.30437367 615.60497315 89.36680453 604.41330887 47.2644043 599.44604492 C46.37454834 599.34001953 45.48469238 599.23399414 44.56787109 599.12475586 C33.82430295 598.04137084 22.98828065 598.20214207 12.2019043 598.19604492 C11.13093506 598.19537018 10.05996582 598.19469543 8.95654297 598.19400024 C-55.8716397 598.25884782 -118.24936644 617.03562846 -165.7355957 662.44604492 C-167.12584961 663.75702148 -167.12584961 663.75702148 -168.54418945 665.09448242 C-178.93448479 675.14580358 -187.36884024 686.69902436 -195.7355957 698.44604492 C-199.43859758 697.80580628 -201.90465563 696.17950949 -204.9855957 694.07104492 C-206.05165039 693.34530273 -207.11770508 692.61956055 -208.21606445 691.87182617 C-209.38950638 691.06361681 -210.56267522 690.25501084 -211.7355957 689.44604492 C-212.96066923 688.60592858 -214.18593426 687.76609144 -215.41137695 686.92651367 C-218.0752433 685.09926149 -220.73627128 683.26795495 -223.39575195 681.43432617 C-228.00132963 678.26028305 -232.61801768 675.10259422 -237.2355957 671.94604492 C-243.72272483 667.51036211 -250.20306156 663.06501208 -256.67700195 658.61010742 C-261.85727464 655.04673893 -267.04544562 651.4950079 -272.2355957 647.94604492 C-278.72048013 643.51175798 -285.19886567 639.06823112 -291.67041016 634.61450195 C-296.91461031 631.00686856 -302.16816105 627.41301898 -307.4230957 623.82104492 C-314.87981649 618.72352115 -322.31771774 613.59993859 -329.7355957 608.44604492 C-328.12025908 603.58114222 -325.37459409 599.76197211 -322.4230957 595.63354492 C-321.89329102 594.8887085 -321.36348633 594.14387207 -320.81762695 593.37646484 C-315.59188567 586.11210177 -310.02505005 579.15884014 -304.28100586 572.30004883 C-302.86790466 570.60477386 -301.47706813 568.89394162 -300.09106445 567.17651367 C-293.42923131 559.04099855 -286.08221699 551.5816952 -278.6730957 544.13354492 C-278.16612152 543.62130371 -277.65914734 543.1090625 -277.1368103 542.58129883 C-270.33990128 535.72984968 -263.29803103 529.4606816 -255.7355957 523.44604492 C-254.70803513 522.58266921 -253.68463506 521.71426241 -252.66918945 520.83666992 C-183.95897685 461.91147977 -91.04690147 434.45680603 -1.7355957 432.44604492 C-0.88707031 432.42413086 -0.03854492 432.4022168 0.83569336 432.37963867 C98.88465002 430.16384304 198.69242883 455.31510181 295.5065918 537.78198242 C300.68661222 542.78472988 305.52665721 548.02219117 310.2644043 553.44604492 C311.1306543 554.42444336 311.9969043 555.4028418 312.8894043 556.41088867 C344.31022325 592.36223141 367.16662139 635.71878827 383.2644043 680.44604492 C383.64161621 681.47793945 384.01882813 682.50983398 384.4074707 683.57299805 C402.50935129 733.50813807 411.33509425 786.94273583 414.9050293 839.79760742 C415.00932251 841.02217651 415.00932251 841.02217651 415.11572266 842.27148438 C415.2644043 844.44604492 415.2644043 844.44604492 415.15893555 847.77807617 C416.82124686 851.7899441 419.68857605 852.54383658 423.56323242 854.22265625 C424.59899414 854.64699951 425.63475586 855.07134277 426.7019043 855.50854492 C428.91064803 856.46815453 431.11762382 857.43184165 433.32299805 858.39916992 C434.47010254 858.89739258 435.61720703 859.39561523 436.79907227 859.90893555 C455.30807028 868.11892931 472.97910221 877.93483706 490.2644043 888.44604492 C491.11083496 888.96021973 491.95726562 889.47439453 492.8293457 890.00415039 C509.97302835 900.4840662 526.55807902 911.90773064 542.2644043 924.44604492 C542.89830078 924.94990723 543.53219727 925.45376953 544.18530273 925.97290039 C551.88179943 932.10541296 559.4341469 938.32445663 566.6394043 945.03198242 C568.66297309 946.89294301 570.71118179 948.68416369 572.79956055 950.46948242 C578.10731001 955.10022938 583.07681388 960.07241068 588.0546875 965.05102539 C589.69016312 966.6843194 591.33348137 968.30942962 592.97729492 969.93432617 C598.8006148 975.72731026 604.25263856 981.61178753 609.3527832 988.06079102 C611.22451731 990.39627534 613.1809875 992.61426903 615.2019043 994.82104492 C676.65993294 1063.43099406 709.69357669 1160.01734569 716.5144043 1263.38354492 C716.57620377 1264.55658676 716.57620377 1264.55658676 716.63925171 1265.75332642 C717.49620611 1282.54134889 717.42953862 1299.22499477 716.5144043 1316.00854492 C716.47117035 1316.80251678 716.4279364 1317.59648865 716.38339233 1318.41452026 C711.82867344 1399.63580096 687.50253673 1481.55024257 601.2644043 1610.44604492 C600.37205712 1611.51209967 599.48015382 1612.57852608 598.58862305 1613.64526367 C593.67499972 1619.5069353 588.68499315 1625.28213156 583.5300293 1630.93432617 C582.26716901 1632.33435922 581.01067517 1633.74047012 579.77983093 1635.16873169 C575.58080349 1640.03973619 571.1966909 1644.66052323 566.64331055 1649.19995117 C565.93971909 1649.90449936 565.23612762 1650.60904755 564.51121521 1651.33494568 C563.03425782 1652.81257859 561.55605687 1654.28896949 560.07666016 1655.76416016 C557.83275345 1658.00270974 555.59423725 1660.24654965 553.35620117 1662.4909668 C551.91055812 1663.93594896 550.46460484 1665.38062084 549.01831055 1666.82495117 C548.03043297 1667.8158651 548.03043297 1667.8158651 547.02259827 1668.82679749 C543.14522622 1672.68499721 539.16001262 1676.363325 535.01531982 1679.9332428 C532.61187226 1682.00983674 530.28486566 1684.16586755 527.9519043 1686.32104492 C522.54963859 1691.24228697 516.95134759 1695.86003552 511.2644043 1700.44604492 C510.0811388 1701.42012358 508.89890377 1702.39545492 507.7175293 1703.37182617 C492.15928841 1716.19280335 476.04956009 1728.27676955 459.2644043 1739.44604492 C458.51255859 1739.94813477 457.76071289 1740.45022461 456.98608398 1740.9675293 C380.36268113 1791.96615928 294.67351445 1824.78292471 99.7816534 1856.23276615 C98.01404003 1856.38253059 96.24686118 1856.53747034 94.48003197 1856.69621849 C86.2801826 1857.39067276 78.14347311 1857.60558037 69.91674805 1857.62304688 C68.52973266 1857.62933449 67.14271888 1857.63598318 65.75570679 1857.64295959 C61.23778403 1857.66378786 56.71986189 1857.67436485 52.2019043 1857.68432617 C50.62136826 1857.68838625 49.04083237 1857.69250348 47.46029663 1857.69667625 C40.00169992 1857.71570754 32.54311276 1857.72992437 25.0844965 1857.73828822 C17.44873278 1857.74700143 9.81317362 1857.7661052 2.17749023 1857.80273438 C-70.32135444 1858.14310995 -70.32135444 1858.14310995 -106.42092514 1853.72826958 C-108.90159745 1853.42580455 -111.38333302 1853.13344481 -113.86538696 1852.84254456 C-194.02209241 1843.39922394 -272.8445409 1824.29619691 -414.7355957 1759.44604492 C-415.75524414 1758.8654834 -416.77489258 1758.28492188 -417.82543945 1757.68676758 C-451.60865959 1738.33307737 -484.05698276 1716.37455995 -513.66137695 1691.05151367 C-516.43258725 1688.68740305 -519.2648676 1686.40760534 -522.1105957 1684.13354492 C-527.95251404 1679.38325512 -533.39926554 1674.24347407 -538.86450195 1669.07104492 C-541.70869098 1666.38376636 -544.60874572 1663.76913379 -547.5324707 1661.16870117 C-553.01252628 1656.25274598 -558.22980703 1651.09949522 -563.4230957 1645.88354492 C-564.32092773 1644.98958008 -565.21875977 1644.09561523 -566.14379883 1643.17456055 C-570.65045731 1638.6612989 -575.01961291 1634.09363058 -579.17333984 1629.25341797 C-581.57539356 1626.47448319 -584.09825867 1623.81235703 -586.6105957 1621.13354492 C-591.01463295 1616.39452192 -595.21961359 1611.5520787 -599.27075195 1606.50463867 C-601.15533911 1604.16607806 -603.05780086 1601.84959131 -604.98168945 1599.54370117 C-612.34063884 1590.7135749 -619.44716421 1581.7520702 -626.24243164 1572.48071289 C-627.74508929 1570.43310843 -629.25968104 1568.39470107 -630.7746582 1566.35620117 C-651.49993211 1538.2714594 -669.98107156 1508.17691026 -686.23120117 1477.29907227 C-687.69981427 1474.51390305 -689.18660476 1471.73913628 -690.67700195 1468.96557617 C-726.2491426 1402.34563949 -750.51589658 1330.55089705 -768.7355957 1257.44604492 C-768.91006226 1256.74711121 -769.08452881 1256.04817749 -769.26428223 1255.32806396 C-771.56934032 1246.0662761 -773.72061479 1236.77510072 -775.7355957 1227.44604492 C-775.88794678 1226.74120972 -776.04029785 1226.03637451 -776.19726562 1225.31018066 C-790.85033124 1157.20749373 -799.21904923 1087.94065751 -803.4230957 1018.44604492 C-803.48403412 1017.44324493 -803.54497253 1016.44044495 -803.60775757 1015.40725708 C-805.29955854 987.16934385 -805.94417506 958.9775148 -805.9230957 930.69604492 C-805.92282883 929.8891774 -805.92256195 929.08230988 -805.92228699 928.25099182 C-805.91071796 900.27379097 -805.46413166 872.37730122 -803.7355957 844.44604492 C-803.64084961 842.89246277 -803.64084961 842.89246277 -803.54418945 841.30749512 C-797.60573453 744.74574364 -783.61036391 648.51220333 -662.57885742 340.41723633 C-661.00769196 337.88464246 -659.44821428 335.3455892 -657.89575195 332.80151367 C-644.59459339 311.10321203 -629.6912128 290.26688987 -613.7355957 270.44604492 C-613.22528809 269.80957031 -612.71498047 269.1730957 -612.18920898 268.51733398 C-601.74103553 255.49920847 -591.03151267 242.76966849 -579.63793945 230.56713867 C-577.81756837 228.61746797 -576.022882 226.65302545 -574.23950195 224.66870117 C-568.20503928 217.95642054 -561.92022449 211.52484587 -555.5480957 205.13354492 C-554.7044043 204.28526123 -553.86071289 203.43697754 -552.99145508 202.56298828 C-548.631322 198.21355859 -544.20445999 194.01313862 -539.53369141 189.99902344 C-536.93454761 187.75419605 -534.43615192 185.41187771 -531.9230957 183.07104492 C-527.28136807 178.78297973 -522.50435284 174.72119434 -517.5793457 170.75854492 C-515.00148276 168.66226077 -512.47111221 166.52341236 -509.94946289 164.3605957 C-503.95162405 159.22288455 -497.82438016 154.34150764 -491.43774414 149.6887207 C-489.59587397 148.34403924 -487.76369665 146.98666845 -485.9309082 145.62963867 C-458.69626106 125.58965366 -430.09083509 107.68011581 -400.24682617 91.78979492 C-397.92231448 90.54595744 -395.61081029 89.28122288 -393.30200195 88.00854492 C-355.49684032 67.36323318 -314.70606403 52.42008931 -273.7355957 39.44604492 C-271.94532959 38.87829346 -271.94532959 38.87829346 -270.11889648 38.29907227 C-219.65495925 22.46939336 -167.39889696 12.51077229 -114.93481445 6.22729492 C-114.26730667 6.14709106 -113.59979889 6.06688721 -112.9120636 5.98425293 C-106.09620126 5.19391457 -99.26472443 4.5531273 -92.43473816 3.8989563 C-89.50462178 3.61829115 -86.57550767 3.33010357 -83.64717102 3.03146362 C-55.77815937 0.2411429 -27.99219638 -0.05335034 0 0 Z M-146.7355957 1014.44604492 C-147.27522949 1014.94185059 -147.81486328 1015.43765625 -148.37084961 1015.94848633 C-173.76198283 1039.55308423 -188.11564293 1070.66694217 -189.9387207 1105.30541992 C-190.14715189 1122.6052088 -187.69490092 1139.1869256 -181.7355957 1155.44604492 C-181.35532227 1156.50049805 -180.97504883 1157.55495117 -180.58325195 1158.64135742 C-169.46499047 1187.3167389 -145.93355626 1209.45301801 -119.7355957 1224.44604492 C-119.12828613 1224.80021484 -118.52097656 1225.15438477 -117.89526367 1225.51928711 C-91.81433688 1240.59950658 -62.36740209 1248.20914678 -32.7355957 1252.44604492 C-31.49737061 1252.62393555 -31.49737061 1252.62393555 -30.23413086 1252.80541992 C29.68499041 1260.94153823 99.8987872 1251.2578607 149.4519043 1215.07104492 C173.01768693 1196.74929634 191.57525664 1175.41825132 206.2644043 1149.44604492 C206.66127441 1148.74946777 207.05814453 1148.05289062 207.46704102 1147.33520508 C233.88279006 1100.50776261 244.5950568 1046.1069042 250.6394043 993.19604492 C250.7250766 992.44811676 250.8107489 991.7001886 250.89901733 990.92959595 C251.67245404 984.08472377 252.35814573 977.34762026 252.2644043 970.44604492 C240.86746837 967.62411703 229.48430164 965.28695785 217.8894043 963.44604492 C217.10325745 963.31975708 216.3171106 963.19346924 215.50714111 963.06335449 C189.25983007 958.86636102 162.81011343 955.89462053 136.2644043 954.44604492 C135.49274933 954.40367706 134.72109436 954.3613092 133.92605591 954.31765747 C117.5176389 953.44287708 101.1314474 953.24542112 84.7019043 953.25854492 C82.77059158 953.25895279 82.77059158 953.25895279 80.80026245 953.2593689 C3.00919485 953.33456655 -86.59018944 958.83848761 -146.7355957 1014.44604492 Z " fill="#FFFFFF" transform="translate(1098.735595703125,202.553955078125)"/>
</svg>
